<svg xmlns="http://www.w3.org/2000/svg" viewBox="0 0 53.11 53.11"><defs><style>.cls-1,.cls-2{fill:#fff;}.cls-2{opacity:0.5;}</style></defs><title>Asset 2</title><g id="Layer_2" data-name="Layer 2"><g id="Layer_1-2" data-name="Layer 1"><rect width="53.11" height="53.11"/><path class="cls-1" d="M27.84,32.49l0,0,2.6-2.6.47-.47,0,0,3-3.05H29.76l-3-14.77L19.9,18.48,13,11.6,7,41.5l4.21-4.21,4.23,4.22h.52l4.22-4.21,4.22,4.22h0l4.22-4.21,4.22,4.22-1.82-9ZM18,25.75a1.6,1.6,0,1,1,1.59-1.59A1.59,1.59,0,0,1,18,25.75Z"/><polygon class="cls-2" points="30.48 29.89 27.88 32.49 27.84 32.49 27.87 32.46 30.47 29.86 30.48 29.89"/><polygon class="cls-1" points="30.96 29.42 30.48 29.89 27.88 32.49 27.87 32.49 27.87 32.46 30.47 29.86 30.94 29.39 30.96 29.42"/><polygon class="cls-1" points="30.96 29.42 30.48 29.89 27.88 32.49 27.84 32.49 27.87 32.46 30.47 29.86 30.94 29.39 30.96 29.42"/><rect class="cls-1" x="34.53" y="26.26" width="10.03" height="1.61" transform="translate(-7.08 16) rotate(-21.04)"/><rect class="cls-1" x="34.53" y="34.56" width="10.03" height="1.61" transform="translate(63.74 82.57) rotate(-158.96)"/><rect class="cls-1" x="36.12" y="30.41" width="10.03" height="1.61"/></g></g></svg>