<svg xmlns="http://www.w3.org/2000/svg" viewBox="0 0 107.2 29.91"><defs><style>.cls-1{opacity:0.5;}.cls-2{font-size:17.35px;letter-spacing:-0.13em;}.cls-2,.cls-6{font-family:MADESoulmaze-Italic, MADE Soulmaze;font-style:italic;}.cls-3{letter-spacing:-0.1em;}.cls-4{letter-spacing:-0.12em;}.cls-5{letter-spacing:-0.1em;}.cls-6{font-size:9.21px;letter-spacing:-0.01em;}.cls-7{letter-spacing:0em;}</style></defs><title>Asset 3</title><g id="Layer_2" data-name="Layer 2"><g id="Layer_1-2" data-name="Layer 1"><path d="M20.88,20.9l0,0,2.59-2.61L24,17.8l0,0,3-3H22.81L19.82,0,12.94,6.88,6.06,0,0,29.91l4.22-4.22,4.22,4.22H9l4.22-4.22,4.23,4.22h0l4.22-4.22,4.23,4.22-1.83-9Zm-9.83-6.75a1.6,1.6,0,1,1,1.59-1.59A1.59,1.59,0,0,1,11.05,14.15Z"/><polygon class="cls-1" points="23.52 18.3 20.92 20.9 20.89 20.9 20.91 20.87 23.51 18.26 23.52 18.3"/><polygon points="24 17.82 23.52 18.3 20.92 20.9 20.91 20.9 20.91 20.87 23.51 18.26 23.98 17.8 24 17.82"/><polygon points="24 17.82 23.52 18.3 20.92 20.9 20.89 20.9 20.91 20.87 23.51 18.26 23.98 17.8 24 17.82"/><rect x="27.57" y="14.66" width="10.03" height="1.61" transform="translate(-3.38 12.73) rotate(-21.04)"/><rect x="27.57" y="22.96" width="10.03" height="1.61" transform="translate(54.45 57.65) rotate(-158.96)"/><rect x="29.17" y="18.81" width="10.03" height="1.61"/><text class="cls-2" transform="translate(42.34 15.12)">b<tspan class="cls-3" x="11.29" y="0">ar</tspan><tspan class="cls-4" x="38.96" y="0">k</tspan><tspan class="cls-5" x="51.49" y="0">z</tspan></text><text class="cls-6" transform="translate(53.03 26.44)">s<tspan class="cls-7" x="6.9" y="0">tudio</tspan></text></g></g></svg>